<svg width="38" height="38" viewBox="0 0 38 38" fill="none" xmlns="http://www.w3.org/2000/svg">
<g filter="url(#filter0_d_21_401)">
<path d="M12.1344 25.3635C13.3868 25.3635 14.4053 26.4044 14.4053 27.6825C14.4053 28.9607 13.3868 30 12.1344 30C10.8819 30 9.86192 28.9607 9.86192 27.6825C9.86192 26.4044 10.8819 25.3635 12.1344 25.3635ZM29.0119 25.3635C30.2644 25.3635 31.2844 26.4044 31.2844 27.6825C31.2844 28.9607 30.2644 30 29.0119 30C27.7595 30 26.741 28.9607 26.741 27.6825C26.741 26.4044 27.7595 25.3635 29.0119 25.3635ZM5.16317 0.000479822L5.31689 0.015226L8.43831 0.567807C8.9423 0.656587 9.32479 1.08365 9.36678 1.60409L10.8112 19.1642C10.8802 20.0061 11.5567 20.6413 12.3862 20.6413H28.7523C29.5323 20.6413 30.2043 20.0474 30.3168 19.2606L31.7402 9.22082C31.7912 8.8657 31.6322 8.6162 31.5332 8.49833C31.4342 8.382 31.2152 8.18607 30.8627 8.18607H14.7456C14.1247 8.18607 13.6207 7.67176 13.6207 7.03805C13.6207 6.40434 14.1247 5.89003 14.7456 5.89003H30.8627C31.7732 5.89003 32.6387 6.29413 33.2342 6.99672C33.8297 7.69931 34.0982 8.62844 33.9677 9.54992L32.5427 19.5897C32.2727 21.4985 30.6437 22.9374 28.7523 22.9374H12.3862C10.3778 22.9374 8.7368 21.3975 8.5688 19.3556L7.19784 2.67863L4.9329 2.27912C4.32091 2.17044 3.91142 1.57653 4.01642 0.952011C4.12142 0.325957 4.6974 -0.0857998 5.31689 0.015226L5.16317 0.000479822ZM26.3482 11.5484C26.9691 11.5484 27.4731 12.0627 27.4731 12.6964C27.4731 13.3301 26.9691 13.8444 26.3482 13.8444H22.1888C21.5663 13.8444 21.0638 13.3301 21.0638 12.6964C21.0638 12.0627 21.5663 11.5484 22.1888 11.5484H26.3482Z" fill="#F9F9F9"/>
</g>
<defs>
<filter id="filter0_d_21_401" x="0" y="0" width="38" height="38" filterUnits="userSpaceOnUse" color-interpolation-filters="sRGB">
<feFlood flood-opacity="0" result="BackgroundImageFix"/>
<feColorMatrix in="SourceAlpha" type="matrix" values="0 0 0 0 0 0 0 0 0 0 0 0 0 0 0 0 0 0 127 0" result="hardAlpha"/>
<feOffset dy="4"/>
<feGaussianBlur stdDeviation="2"/>
<feComposite in2="hardAlpha" operator="out"/>
<feColorMatrix type="matrix" values="0 0 0 0 0 0 0 0 0 0 0 0 0 0 0 0 0 0 0.25 0"/>
<feBlend mode="normal" in2="BackgroundImageFix" result="effect1_dropShadow_21_401"/>
<feBlend mode="normal" in="SourceGraphic" in2="effect1_dropShadow_21_401" result="shape"/>
</filter>
</defs>
</svg>
